<?xml version="1.0" encoding="iso-8859-1"?>
<!-- Generator: Adobe Illustrator 19.0.0, SVG Export Plug-In . SVG Version: 6.00 Build 0)  -->
<svg version="1.1" id="Capa_1" xmlns="http://www.w3.org/2000/svg" xmlns:xlink="http://www.w3.org/1999/xlink" x="0px" y="0px"
	 viewBox="0 0 512.001 512.001" style="enable-background:new 0 0 512.001 512.001;" xml:space="preserve">
<path style="fill:#23A24D;" d="M503.442,379.085v74.505c0.111,27.435-22.084,49.758-49.57,49.869
	c-1.562,0.009-3.123-0.06-4.685-0.205c-76.578-8.303-150.127-34.415-214.758-76.245c-60.126-38.135-111.104-89.011-149.308-149.018
	C43.077,213.214,16.905,139.444,8.73,62.678C6.255,35.354,26.445,11.205,53.82,8.739c1.476-0.137,2.953-0.205,4.437-0.205h74.658
	c24.977-0.247,46.276,18.031,49.766,42.718c3.149,23.842,8.994,47.258,17.417,69.786c6.835,18.15,2.466,38.613-11.196,52.403
	l-31.607,31.539c35.422,62.174,87.006,113.655,149.308,149.018l31.607-31.539c13.815-13.636,34.321-17.997,52.506-11.179
	c22.579,8.405,46.037,14.242,69.931,17.382C485.667,332.195,504.073,353.869,503.442,379.085z"/>
<g>
	<path style="fill:#4D007E;" d="M503.459,196.267c-4.71,0-8.533-3.823-8.533-8.533c0-94.106-76.561-170.667-170.667-170.667
		c-4.71,0-8.533-3.823-8.533-8.533S319.548,0,324.259,0c103.518,0,187.733,84.215,187.733,187.733
		C511.992,192.444,508.178,196.267,503.459,196.267z"/>
	<path style="fill:#4D007E;" d="M452.259,196.267c-4.71,0-8.533-3.823-8.533-8.533c0-65.877-53.589-119.467-119.467-119.467
		c-4.71,0-8.533-3.823-8.533-8.533s3.823-8.533,8.533-8.533c75.29,0,136.533,61.252,136.533,136.533
		C460.792,192.444,456.978,196.267,452.259,196.267z"/>
	<path style="fill:#4D007E;" d="M401.059,196.267c-4.71,0-8.533-3.823-8.533-8.533c0-37.641-30.626-68.267-68.267-68.267
		c-4.71,0-8.533-3.823-8.533-8.533s3.823-8.533,8.533-8.533c47.053,0,85.333,38.281,85.333,85.333
		C409.592,192.444,405.778,196.267,401.059,196.267z"/>
	<path style="fill:#4D007E;" d="M453.752,512c-1.775,0-3.541-0.077-5.299-0.23c-77.679-8.422-153.225-35.243-218.641-77.585
		c-60.715-38.502-113.254-90.94-151.876-151.595C35.397,217.054,8.517,141.304,0.248,63.582
		c-1.417-15.625,3.311-30.729,13.286-42.667C23.51,8.986,37.547,1.639,53.052,0.239C54.776,0.086,56.517,0,58.258,0h74.658
		c29.175-0.111,54.135,21.231,58.223,50.057c3.072,23.253,8.781,46.097,16.964,67.994c7.979,21.188,2.825,45.295-13.133,61.397
		l-26.991,26.931c33.425,56.448,80.674,103.603,137.233,136.951l26.974-26.914c16.162-15.949,40.294-21.086,61.534-13.124
		c21.931,8.166,44.826,13.867,68.045,16.922c29.355,4.13,50.893,29.474,50.219,58.974v74.402
		c0.128,32.06-25.916,58.274-58.069,58.411C453.854,512,453.803,512,453.752,512z M133.402,17.067c-0.137,0-0.273,0-0.41,0H58.258
		c-1.229,0-2.449,0.06-3.669,0.171c-10.974,0.99-20.898,6.187-27.955,14.626S16.239,50.97,17.229,61.91
		c7.979,74.931,33.937,148.096,75.059,211.447c37.325,58.624,88.047,109.244,146.722,146.458
		c63.258,40.943,136.235,66.85,211.106,74.974c1.126,0.102,2.406,0.102,3.738,0.154c22.724-0.094,41.148-18.628,41.062-41.31
		v-74.539c0-0.068,0-0.145,0-0.213c0.521-20.89-14.729-38.835-35.465-41.754c-24.414-3.209-48.572-9.225-71.714-17.843
		c-15.036-5.632-32.128-2.005-43.537,9.25l-31.573,31.505c-2.714,2.705-6.895,3.285-10.24,1.382
		C238.789,325.334,186.044,272.7,149.88,209.212c-1.903-3.345-1.34-7.543,1.391-10.266l31.607-31.539
		c11.238-11.341,14.882-28.373,9.242-43.358c-8.644-23.117-14.66-47.232-17.894-71.68C171.367,32.214,153.848,17.067,133.402,17.067
		z"/>
	<path style="fill:#4D007E;" d="M59.725,153.6c-3.678,0-7.066-2.398-8.175-6.093c-8.303-27.819-14.14-57.267-17.365-87.535
		c-0.768-8.602,3.618-14.865,5.538-17.161c2.389-2.859,7.706-7.791,16.401-8.576c0.708-0.068,1.417-0.102,2.133-0.102h69.743
		c4.71,0,8.533,3.831,8.525,8.542c0,4.71-3.823,8.525-8.533,8.525c0,0,0,0-0.009,0H58.258c-3.174,0.265-4.736,1.707-5.436,2.543
		c-0.435,0.529-1.843,2.398-1.647,4.565c3.098,29.09,8.73,57.506,16.734,84.318c1.348,4.514-1.22,9.267-5.734,10.615
		C61.355,153.49,60.536,153.6,59.725,153.6z"/>
	<path style="fill:#4D007E;" d="M453.769,477.867c-0.205,0-1.63-0.034-2.33-0.102c-30.345-3.294-59.554-9.114-86.955-17.323
		c-4.514-1.357-7.083-6.11-5.726-10.624c1.357-4.514,6.127-7.083,10.624-5.726c26.411,7.91,54.588,13.525,83.746,16.691l0.785,0.017
		c1.69-0.009,3.465-0.751,4.804-2.099c1.34-1.348,2.074-3.157,2.065-5.077L460.792,384c0-4.71,3.823-8.533,8.533-8.533l0,0
		c4.71,0,8.533,3.823,8.533,8.533l-0.009,69.589c0.026,6.451-2.466,12.544-7.014,17.135
		C466.287,475.307,460.229,477.842,453.769,477.867z"/>
</g>
<g>
</g>
<g>
</g>
<g>
</g>
<g>
</g>
<g>
</g>
<g>
</g>
<g>
</g>
<g>
</g>
<g>
</g>
<g>
</g>
<g>
</g>
<g>
</g>
<g>
</g>
<g>
</g>
<g>
</g>
</svg>
